<svg width="271" height="52" viewBox="0 0 271 52" fill="none" xmlns="http://www.w3.org/2000/svg">
<path d="M257.12 34.9598V31.4398H265.44V37.1358C265.44 40.3358 267.424 42.3198 270.752 42.3198V50.6398C266.592 50.6398 263.008 49.0398 260.576 46.4158C257.76 49.0398 253.984 50.6398 249.76 50.6398C240.992 50.6398 234.08 43.7278 234.08 34.9598C234.08 26.1918 240.928 19.2798 249.76 19.2798H265.44V27.5998H249.76C245.536 27.5998 242.4 30.7998 242.4 34.9598C242.4 39.1838 245.536 42.3198 249.76 42.3198C253.92 42.3198 257.12 39.1838 257.12 34.9598Z" fill="white"/>
<path d="M217.465 28.4958L223.481 19.2798H233.785L222.969 34.1278L234.425 49.9998H224.121L217.465 39.8878L210.745 49.9998H200.377L211.833 34.1278L201.017 19.2798H211.385L217.465 28.4958Z" fill="white"/>
<path d="M168.985 34.6401C168.985 25.3601 175.641 18.6401 184.857 18.6401C194.073 18.6401 200.729 25.3601 200.729 34.6401C200.729 35.2161 200.665 36.0481 200.537 36.8801H177.625C178.521 40.0801 181.401 42.3201 184.985 42.3201C187.225 42.3201 189.145 41.4881 190.489 40.0801H199.897C197.913 46.6081 192.089 50.6401 184.857 50.6401C175.577 50.6401 168.985 43.9841 168.985 34.6401ZM178.009 31.3761H192.025C190.809 28.6881 188.185 26.9601 184.985 26.9601C181.785 26.9601 179.161 28.6881 178.009 31.3761Z" fill="white"/>
<path d="M135.532 19.2798H144.684L152.428 37.7758L160.172 19.2798H169.324L155.948 49.9998H148.908L135.532 19.2798Z" fill="white"/>
<path d="M123.982 7.12012H132.302V50.0001H123.982V7.12012Z" fill="white"/>
<path d="M87.78 34.6401C87.78 25.3601 94.436 18.6401 103.652 18.6401C112.868 18.6401 119.524 25.3601 119.524 34.6401C119.524 35.2161 119.46 36.0481 119.332 36.8801H96.42C97.316 40.0801 100.196 42.3201 103.78 42.3201C106.02 42.3201 107.94 41.4881 109.284 40.0801H118.692C116.708 46.6081 110.884 50.6401 103.652 50.6401C94.372 50.6401 87.78 43.9841 87.78 34.6401ZM96.804 31.3761H110.82C109.604 28.6881 106.98 26.9601 103.78 26.9601C100.58 26.9601 97.956 28.6881 96.804 31.3761Z" fill="white"/>
<path d="M53.2 7.12012H61.52V20.8801C63.824 19.4721 66.512 18.6401 69.392 18.6401C77.904 18.6401 84.56 25.5521 84.56 34.3201C84.56 43.0881 77.712 50.0001 68.88 50.0001H53.2V41.6801H68.88C73.104 41.6801 76.24 38.4801 76.24 34.3201C76.24 30.0961 73.104 26.9601 68.88 26.9601C64.72 26.9601 61.52 30.0961 61.52 34.3201V37.8401H53.2V7.12012Z" fill="white"/>
<mask id="mask0_154_16" style="mask-type:luminance" maskUnits="userSpaceOnUse" x="0" y="0" width="19" height="52">
<path d="M0 0.726562H18.6108V51.2045H0V0.726562Z" fill="white"/>
</mask>
<g mask="url(#mask0_154_16)">
<path fill-rule="evenodd" clip-rule="evenodd" d="M0.00805664 0.723145V36.1682C0.00805664 53.4552 18.5606 50.9391 18.5606 50.9391C9.71881 45.8487 13.6608 33.405 13.6608 21.0919C13.6586 5.9267 1.43666 0.723145 0.00805664 0.723145Z" fill="url(#paint0_linear_154_16)"/>
</g>
<mask id="mask1_154_16" style="mask-type:luminance" maskUnits="userSpaceOnUse" x="17" y="8" width="28" height="44">
<path d="M17.4858 8.45947H44.7133V51.204H17.4858V8.45947Z" fill="white"/>
</mask>
<g mask="url(#mask1_154_16)">
<path fill-rule="evenodd" clip-rule="evenodd" d="M44.7151 10.189V38.9695C44.7151 50.0203 35.3801 51.1045 31.4073 51.0677C28.0185 51.098 20.9002 50.3433 18.4252 43.765C16.9362 37.6486 18.7032 29.3412 18.7032 21.0948C18.7032 16.8069 18.8333 13.267 17.5547 8.49512C18.7619 8.49512 29.0994 12.8962 29.0994 25.7211C29.0994 32.5598 27.6625 39.4462 28.7935 44.5866C29.5294 47.9337 33.4368 47.2873 33.9778 44.5866C34.961 39.6808 33.6302 33.1848 33.6302 26.7317C33.6302 14.4187 43.5557 10.1934 44.7151 10.1934V10.189Z" fill="url(#paint1_linear_154_16)"/>
</g>
<defs>
<linearGradient id="paint0_linear_154_16" x1="5.9288" y1="-9.74178" x2="-25.273" y2="33.3397" gradientUnits="userSpaceOnUse">
<stop offset="0.187523" stop-color="#E0B8C1"/>
<stop offset="0.548105" stop-color="#B8B8FF"/>
<stop offset="0.702523" stop-color="#9381FF"/>
</linearGradient>
<linearGradient id="paint1_linear_154_16" x1="26.2225" y1="-0.354596" x2="6.44714" y2="46.9143" gradientUnits="userSpaceOnUse">
<stop offset="0.187523" stop-color="#E0B8C1"/>
<stop offset="0.548105" stop-color="#B8B8FF"/>
<stop offset="0.702523" stop-color="#9381FF"/>
</linearGradient>
</defs>
</svg>
