<svg width="218" height="44" viewBox="0 0 218 44" fill="none" xmlns="http://www.w3.org/2000/svg">
<path d="M204.12 28.2332V24.7132H212.44V30.4092C212.44 33.6092 214.424 35.5932 217.752 35.5932V43.9132C213.592 43.9132 210.008 42.3132 207.576 39.6892C204.76 42.3132 200.984 43.9132 196.76 43.9132C187.992 43.9132 181.08 37.0012 181.08 28.2332C181.08 19.4652 187.928 12.5532 196.76 12.5532H212.44V20.8732H196.76C192.536 20.8732 189.4 24.0732 189.4 28.2332C189.4 32.4572 192.536 35.5932 196.76 35.5932C200.92 35.5932 204.12 32.4572 204.12 28.2332Z" fill="white"/>
<path d="M164.465 21.7692L170.481 12.5532H180.785L169.969 27.4012L181.425 43.2732H171.121L164.465 33.1612L157.745 43.2732H147.377L158.833 27.4012L148.017 12.5532H158.385L164.465 21.7692Z" fill="white"/>
<path d="M115.985 27.9136C115.985 18.6336 122.641 11.9136 131.857 11.9136C141.073 11.9136 147.729 18.6336 147.729 27.9136C147.729 28.4896 147.665 29.3216 147.537 30.1536H124.625C125.521 33.3536 128.401 35.5936 131.985 35.5936C134.225 35.5936 136.145 34.7616 137.489 33.3536H146.897C144.913 39.8816 139.089 43.9136 131.857 43.9136C122.577 43.9136 115.985 37.2576 115.985 27.9136ZM125.009 24.6496H139.025C137.809 21.9616 135.185 20.2336 131.985 20.2336C128.785 20.2336 126.161 21.9616 125.009 24.6496Z" fill="white"/>
<path d="M82.5325 12.5532H91.6845L99.4285 31.0492L107.172 12.5532H116.324L102.948 43.2732H95.9085L82.5325 12.5532Z" fill="white"/>
<path d="M70.9824 0.393555H79.3024V43.2736H70.9824V0.393555Z" fill="white"/>
<path d="M34.78 27.9136C34.78 18.6336 41.436 11.9136 50.652 11.9136C59.868 11.9136 66.524 18.6336 66.524 27.9136C66.524 28.4896 66.46 29.3216 66.332 30.1536H43.42C44.316 33.3536 47.196 35.5936 50.78 35.5936C53.02 35.5936 54.94 34.7616 56.284 33.3536H65.692C63.708 39.8816 57.884 43.9136 50.652 43.9136C41.372 43.9136 34.78 37.2576 34.78 27.9136ZM43.804 24.6496H57.82C56.604 21.9616 53.98 20.2336 50.78 20.2336C47.58 20.2336 44.956 21.9616 43.804 24.6496Z" fill="white"/>
<path d="M0.199951 0.393555H8.51995V14.1536C10.824 12.7456 13.512 11.9136 16.392 11.9136C24.904 11.9136 31.56 18.8256 31.56 27.5936C31.56 36.3616 24.712 43.2736 15.88 43.2736H0.199951V34.9536H15.88C20.104 34.9536 23.24 31.7536 23.24 27.5936C23.24 23.3696 20.104 20.2336 15.88 20.2336C11.72 20.2336 8.51995 23.3696 8.51995 27.5936V31.1136H0.199951V0.393555Z" fill="white"/>
</svg>
