<svg width="218" height="44" viewBox="0 0 218 44" fill="none" xmlns="http://www.w3.org/2000/svg">
<path d="M204.12 27.9598V24.4398H212.44V30.1358C212.44 33.3358 214.424 35.3198 217.752 35.3198V43.6398C213.592 43.6398 210.008 42.0398 207.576 39.4158C204.76 42.0398 200.984 43.6398 196.76 43.6398C187.992 43.6398 181.08 36.7278 181.08 27.9598C181.08 19.1918 187.928 12.2798 196.76 12.2798H212.44V20.5998H196.76C192.536 20.5998 189.4 23.7998 189.4 27.9598C189.4 32.1838 192.536 35.3198 196.76 35.3198C200.92 35.3198 204.12 32.1838 204.12 27.9598Z" fill="black"/>
<path d="M164.465 21.4958L170.481 12.2798H180.785L169.969 27.1278L181.425 42.9998H171.121L164.465 32.8878L157.745 42.9998H147.377L158.833 27.1278L148.017 12.2798H158.385L164.465 21.4958Z" fill="black"/>
<path d="M115.985 27.6401C115.985 18.3601 122.641 11.6401 131.857 11.6401C141.073 11.6401 147.729 18.3601 147.729 27.6401C147.729 28.2161 147.665 29.0481 147.537 29.8801H124.625C125.521 33.0801 128.401 35.3201 131.985 35.3201C134.225 35.3201 136.145 34.4881 137.489 33.0801H146.897C144.913 39.6081 139.089 43.6401 131.857 43.6401C122.577 43.6401 115.985 36.9841 115.985 27.6401ZM125.009 24.3761H139.025C137.809 21.6881 135.185 19.9601 131.985 19.9601C128.785 19.9601 126.161 21.6881 125.009 24.3761Z" fill="black"/>
<path d="M82.5325 12.2798H91.6845L99.4285 30.7758L107.172 12.2798H116.324L102.948 42.9998H95.9085L82.5325 12.2798Z" fill="black"/>
<path d="M70.9824 0.120117H79.3024V43.0001H70.9824V0.120117Z" fill="black"/>
<path d="M34.78 27.6401C34.78 18.3601 41.436 11.6401 50.652 11.6401C59.868 11.6401 66.524 18.3601 66.524 27.6401C66.524 28.2161 66.46 29.0481 66.332 29.8801H43.42C44.316 33.0801 47.196 35.3201 50.78 35.3201C53.02 35.3201 54.94 34.4881 56.284 33.0801H65.692C63.708 39.6081 57.884 43.6401 50.652 43.6401C41.372 43.6401 34.78 36.9841 34.78 27.6401ZM43.804 24.3761H57.82C56.604 21.6881 53.98 19.9601 50.78 19.9601C47.58 19.9601 44.956 21.6881 43.804 24.3761Z" fill="black"/>
<path d="M0.199951 0.120117H8.51995V13.8801C10.824 12.4721 13.512 11.6401 16.392 11.6401C24.904 11.6401 31.56 18.5521 31.56 27.3201C31.56 36.0881 24.712 43.0001 15.88 43.0001H0.199951V34.6801H15.88C20.104 34.6801 23.24 31.4801 23.24 27.3201C23.24 23.0961 20.104 19.9601 15.88 19.9601C11.72 19.9601 8.51995 23.0961 8.51995 27.3201V30.8401H0.199951V0.120117Z" fill="black"/>
</svg>
