<svg width="218" height="44" viewBox="0 0 218 44" fill="none" xmlns="http://www.w3.org/2000/svg">
<path d="M0.2 0.119999H8.52V13.88C10.824 12.472 13.512 11.64 16.392 11.64C24.904 11.64 31.56 18.552 31.56 27.32C31.56 36.088 24.712 43 15.88 43H0.2V34.68H15.88C20.104 34.68 23.24 31.48 23.24 27.32C23.24 23.096 20.104 19.96 15.88 19.96C11.72 19.96 8.52 23.096 8.52 27.32V30.84H0.2V0.119999ZM34.78 27.64C34.78 18.36 41.436 11.64 50.652 11.64C59.868 11.64 66.524 18.36 66.524 27.64C66.524 28.216 66.46 29.048 66.332 29.88H43.42C44.316 33.08 47.196 35.32 50.78 35.32C53.02 35.32 54.94 34.488 56.284 33.08H65.692C63.708 39.608 57.884 43.64 50.652 43.64C41.372 43.64 34.78 36.984 34.78 27.64ZM43.804 24.376H57.82C56.604 21.688 53.98 19.96 50.78 19.96C47.58 19.96 44.956 21.688 43.804 24.376ZM70.9825 0.119999H79.3025V43H70.9825V0.119999ZM82.5325 12.28H91.6845L99.4285 30.776L107.173 12.28H116.325L102.949 43H95.9085L82.5325 12.28ZM115.985 27.64C115.985 18.36 122.641 11.64 131.857 11.64C141.073 11.64 147.729 18.36 147.729 27.64C147.729 28.216 147.665 29.048 147.537 29.88H124.625C125.521 33.08 128.401 35.32 131.985 35.32C134.225 35.32 136.145 34.488 137.489 33.08H146.897C144.913 39.608 139.089 43.64 131.857 43.64C122.577 43.64 115.985 36.984 115.985 27.64ZM125.009 24.376H139.025C137.809 21.688 135.185 19.96 131.985 19.96C128.785 19.96 126.161 21.688 125.009 24.376ZM164.466 21.496L170.482 12.28H180.786L169.97 27.128L181.426 43H171.122L164.466 32.888L157.746 43H147.378L158.834 27.128L148.018 12.28H158.386L164.466 21.496ZM204.12 27.96V24.44H212.44V30.136C212.44 33.336 214.424 35.32 217.752 35.32V43.64C213.592 43.64 210.008 42.04 207.576 39.416C204.76 42.04 200.984 43.64 196.76 43.64C187.992 43.64 181.08 36.728 181.08 27.96C181.08 19.192 187.928 12.28 196.76 12.28H212.44V20.6H196.76C192.536 20.6 189.4 23.8 189.4 27.96C189.4 32.184 192.536 35.32 196.76 35.32C200.92 35.32 204.12 32.184 204.12 27.96Z" fill="white"/>
</svg>
