<svg width="274" height="61" viewBox="0 0 274 61" fill="none" xmlns="http://www.w3.org/2000/svg">
<path d="M53.2 7.12H61.52V20.88C63.824 19.472 66.512 18.64 69.392 18.64C77.904 18.64 84.56 25.552 84.56 34.32C84.56 43.088 77.712 50 68.88 50H53.2V41.68H68.88C73.104 41.68 76.24 38.48 76.24 34.32C76.24 30.096 73.104 26.96 68.88 26.96C64.72 26.96 61.52 30.096 61.52 34.32V37.84H53.2V7.12ZM87.78 34.64C87.78 25.36 94.436 18.64 103.652 18.64C112.868 18.64 119.524 25.36 119.524 34.64C119.524 35.216 119.46 36.048 119.332 36.88H96.42C97.316 40.08 100.196 42.32 103.78 42.32C106.02 42.32 107.94 41.488 109.284 40.08H118.692C116.708 46.608 110.884 50.64 103.652 50.64C94.372 50.64 87.78 43.984 87.78 34.64ZM96.804 31.376H110.82C109.604 28.688 106.98 26.96 103.78 26.96C100.58 26.96 97.956 28.688 96.804 31.376ZM123.983 7.12H132.303V50H123.983V7.12ZM135.533 19.28H144.685L152.429 37.776L160.173 19.28H169.325L155.949 50H148.909L135.533 19.28ZM168.985 34.64C168.985 25.36 175.641 18.64 184.857 18.64C194.073 18.64 200.729 25.36 200.729 34.64C200.729 35.216 200.665 36.048 200.537 36.88H177.625C178.521 40.08 181.401 42.32 184.985 42.32C187.225 42.32 189.145 41.488 190.489 40.08H199.897C197.913 46.608 192.089 50.64 184.857 50.64C175.577 50.64 168.985 43.984 168.985 34.64ZM178.009 31.376H192.025C190.809 28.688 188.185 26.96 184.985 26.96C181.785 26.96 179.161 28.688 178.009 31.376ZM217.466 28.496L223.482 19.28H233.786L222.97 34.128L234.426 50H224.122L217.466 39.888L210.746 50H200.378L211.834 34.128L201.018 19.28H211.386L217.466 28.496ZM257.12 34.96V31.44H265.44V37.136C265.44 40.336 267.424 42.32 270.752 42.32V50.64C266.592 50.64 263.008 49.04 260.576 46.416C257.76 49.04 253.984 50.64 249.76 50.64C240.992 50.64 234.08 43.728 234.08 34.96C234.08 26.192 240.928 19.28 249.76 19.28H265.44V27.6H249.76C245.536 27.6 242.4 30.8 242.4 34.96C242.4 39.184 245.536 42.32 249.76 42.32C253.92 42.32 257.12 39.184 257.12 34.96Z" fill="white"/>
<mask id="mask0_153_2" style="mask-type:luminance" maskUnits="userSpaceOnUse" x="0" y="0" width="19" height="52">
<path d="M0 0.726562H18.6108V51.2045H0V0.726562Z" fill="white"/>
</mask>
<g mask="url(#mask0_153_2)">
<path fill-rule="evenodd" clip-rule="evenodd" d="M0.00805664 0.723145V36.1682C0.00805664 53.4552 18.5606 50.9391 18.5606 50.9391C9.71881 45.8487 13.6608 33.4049 13.6608 21.0919C13.6586 5.9267 1.43666 0.723145 0.00805664 0.723145Z" fill="url(#paint0_linear_153_2)"/>
</g>
<mask id="mask1_153_2" style="mask-type:luminance" maskUnits="userSpaceOnUse" x="17" y="8" width="28" height="44">
<path d="M17.4858 8.45947H44.7133V51.204H17.4858V8.45947Z" fill="white"/>
</mask>
<g mask="url(#mask1_153_2)">
<path fill-rule="evenodd" clip-rule="evenodd" d="M44.7151 10.189V38.9695C44.7151 50.0203 35.3801 51.1045 31.4073 51.0677C28.0185 51.098 20.9002 50.3433 18.4252 43.765C16.9362 37.6486 18.7032 29.3412 18.7032 21.0948C18.7032 16.8069 18.8333 13.267 17.5547 8.49512C18.7619 8.49512 29.0994 12.8962 29.0994 25.7211C29.0994 32.5598 27.6625 39.4462 28.7935 44.5866C29.5294 47.9337 33.4368 47.2873 33.9778 44.5866C34.961 39.6808 33.6302 33.1848 33.6302 26.7317C33.6302 14.4187 43.5557 10.1934 44.7151 10.1934V10.189Z" fill="url(#paint1_linear_153_2)"/>
</g>
<defs>
<linearGradient id="paint0_linear_153_2" x1="5.9288" y1="-9.74178" x2="-25.273" y2="33.3397" gradientUnits="userSpaceOnUse">
<stop offset="0.187523" stop-color="#E0B8C1"/>
<stop offset="0.548105" stop-color="#B8B8FF"/>
<stop offset="0.702523" stop-color="#9381FF"/>
</linearGradient>
<linearGradient id="paint1_linear_153_2" x1="26.2225" y1="-0.354596" x2="6.44714" y2="46.9143" gradientUnits="userSpaceOnUse">
<stop offset="0.187523" stop-color="#E0B8C1"/>
<stop offset="0.548105" stop-color="#B8B8FF"/>
<stop offset="0.702523" stop-color="#9381FF"/>
</linearGradient>
</defs>
</svg>
