<svg width="1443" height="1453" viewBox="0 0 1443 1453" fill="none" xmlns="http://www.w3.org/2000/svg" class="OqORvR _EsnaR bZM7-R glVDKR IjMMAR"><title>Shaped teal background</title><g><path d="M598.297 1164.44C475.337 1100.04 430.274 954.731 497.646 839.886C565.018 725.041 843.15 473.053 966.11 537.455C1089.07 601.857 1010.3 958.261 942.925 1073.11C875.552 1187.95 721.257 1228.84 598.297 1164.44Z" fill="#ACFF9E"></path></g><g><path d="M340.257 894.415C208.737 722.713 223.694 500.235 373.664 397.494C523.635 294.754 1027.49 161.812 1159.01 333.513C1290.53 505.215 999.911 916.54 849.941 1019.28C699.97 1122.02 471.777 1066.12 340.257 894.415Z" fill="#0DC2C2"></path></g><g><path d="M650.875 920.68C591.364 729.503 613.001 542.557 699.203 503.123C785.405 463.689 1061.98 514.217 1121.49 705.393C1181 896.569 1000.91 1156 914.713 1195.43C828.511 1234.87 710.387 1111.86 650.875 920.68Z" fill="#29FAFA" fill-opacity="0.6"></path></g></svg>